<svg width="40" height="40" viewBox="0 0 40 40" fill="none" xmlns="http://www.w3.org/2000/svg">
<path d="M20 0C17.3736 0 14.7728 0.517371 12.3463 1.5224C9.91977 2.52754 7.71509 4.00069 5.85783 5.85783C4.00069 7.71509 2.52754 9.91977 1.5224 12.3463C0.517371 14.7728 0 17.3736 0 20C0 22.6264 0.517371 25.2272 1.5224 27.6537C2.52754 30.0802 4.00069 32.2849 5.85783 34.1422C7.71509 35.9993 9.91977 37.4725 12.3463 38.4776C14.7728 39.4826 17.3736 40 20 40V30C18.6867 30 17.3864 29.7414 16.1731 29.2387C14.9599 28.7362 13.8575 27.9997 12.9289 27.0711C12.0003 26.1425 11.2638 25.0401 10.7613 23.8269C10.2586 22.6136 10 21.3133 10 20C10 18.6867 10.2586 17.3864 10.7613 16.1731C11.2638 14.9599 12.0003 13.8575 12.9289 12.9289C13.8575 12.0003 14.9599 11.2638 16.1731 10.7613C17.3864 10.2586 18.6867 10 20 10V0Z" fill="#7E41F5"/>
<path d="M20 26.6666C23.6819 26.6666 26.6666 23.6819 26.6666 19.9999C26.6666 16.318 23.6819 13.3333 20 13.3333C16.318 13.3333 13.3333 16.318 13.3333 19.9999C13.3333 23.6819 16.318 26.6666 20 26.6666Z" fill="#7E41F5"/>
<path d="M0 20C0 22.6264 0.517371 25.2272 1.5224 27.6537C2.52754 30.0802 4.00069 32.2849 5.85783 34.1422C7.71509 35.9993 9.91977 37.4725 12.3463 38.4776C14.7728 39.4826 17.3736 40 20 40C22.6264 40 25.2272 39.4826 27.6537 38.4776C30.0802 37.4725 32.2849 35.9993 34.1422 34.1422C35.9993 32.2849 37.4725 30.0802 38.4776 27.6537C39.4826 25.2272 40 22.6264 40 20H30C30 21.3133 29.7414 22.6136 29.2387 23.8269C28.7362 25.0401 27.9997 26.1425 27.0711 27.0711C26.1425 27.9997 25.0401 28.7362 23.8269 29.2387C22.6136 29.7414 21.3133 30 20 30C18.6867 30 17.3864 29.7414 16.1731 29.2387C14.9599 28.7362 13.8575 27.9997 12.9289 27.0711C12.0003 26.1425 11.2638 25.0401 10.7613 23.8269C10.2586 22.6136 10 21.3133 10 20H0Z" fill="#CCB2FF"/>
<path d="M26.6667 20.0001C26.6667 18.2319 25.9643 16.5363 24.7141 15.286C23.4639 14.0357 21.7682 13.3333 20.0001 13.3333C18.232 13.3333 16.5363 14.0357 15.286 15.286C14.0357 16.5363 13.3333 18.2319 13.3333 20.0001H20.0001H26.6667Z" fill="#CCB2FF"/>
</svg>
